<mxfile host="app.diagrams.net" modified="2020-10-14T16:51:11.671Z" agent="5.0 (Windows NT 10.0; Win64; x64) AppleWebKit/537.36 (KHTML, like Gecko) Chrome/86.0.4240.75 Safari/537.36" etag="3qukUoYwZtQV_-AGYYGN" version="13.8.0" type="github">
  <diagram id="pQUAhdHNh8x6qz0KiQX5" name="Page-1">
    <mxGraphModel dx="1038" dy="580" grid="1" gridSize="10" guides="1" tooltips="1" connect="1" arrows="1" fold="1" page="1" pageScale="1" pageWidth="827" pageHeight="1169" math="0" shadow="0">
      <root>
        <mxCell id="0" />
        <mxCell id="1" parent="0" />
        <mxCell id="XpFWsXCwZ9IyMUFJu6XQ-1" value="DIETA" style="whiteSpace=wrap;html=1;align=center;fillColor=#dae8fc;strokeColor=#6c8ebf;" vertex="1" parent="1">
          <mxGeometry x="160" y="80" width="100" height="40" as="geometry" />
        </mxCell>
        <mxCell id="XpFWsXCwZ9IyMUFJu6XQ-2" value="NOMBRE" style="ellipse;whiteSpace=wrap;html=1;align=center;fillColor=#ffe6cc;strokeColor=#d79b00;" vertex="1" parent="1">
          <mxGeometry x="40" y="40" width="100" height="40" as="geometry" />
        </mxCell>
        <mxCell id="XpFWsXCwZ9IyMUFJu6XQ-3" value="ES_SEGUIDA" style="shape=rhombus;perimeter=rhombusPerimeter;whiteSpace=wrap;html=1;align=center;fillColor=#d5e8d4;strokeColor=#82b366;" vertex="1" parent="1">
          <mxGeometry x="150" y="200" width="120" height="60" as="geometry" />
        </mxCell>
        <mxCell id="XpFWsXCwZ9IyMUFJu6XQ-4" value="FINALIDAD" style="ellipse;whiteSpace=wrap;html=1;align=center;fillColor=#ffe6cc;strokeColor=#d79b00;" vertex="1" parent="1">
          <mxGeometry x="10" y="90" width="100" height="40" as="geometry" />
        </mxCell>
        <mxCell id="XpFWsXCwZ9IyMUFJu6XQ-5" value="OBSERVACIONES" style="ellipse;whiteSpace=wrap;html=1;align=center;fillColor=#ffe6cc;strokeColor=#d79b00;" vertex="1" parent="1">
          <mxGeometry x="40" y="140" width="110" height="40" as="geometry" />
        </mxCell>
        <mxCell id="XpFWsXCwZ9IyMUFJu6XQ-6" value="COD_DIETA" style="ellipse;whiteSpace=wrap;html=1;align=center;fillColor=#ffe6cc;strokeColor=#d79b00;fontStyle=4" vertex="1" parent="1">
          <mxGeometry x="160" y="20" width="100" height="40" as="geometry" />
        </mxCell>
        <mxCell id="XpFWsXCwZ9IyMUFJu6XQ-7" value="" style="endArrow=none;html=1;entryX=0.5;entryY=0;entryDx=0;entryDy=0;exitX=0.5;exitY=1;exitDx=0;exitDy=0;" edge="1" parent="1" source="XpFWsXCwZ9IyMUFJu6XQ-6" target="XpFWsXCwZ9IyMUFJu6XQ-1">
          <mxGeometry width="50" height="50" relative="1" as="geometry">
            <mxPoint x="390" y="220" as="sourcePoint" />
            <mxPoint x="440" y="170" as="targetPoint" />
          </mxGeometry>
        </mxCell>
        <mxCell id="XpFWsXCwZ9IyMUFJu6XQ-8" value="" style="endArrow=none;html=1;exitX=1;exitY=1;exitDx=0;exitDy=0;entryX=0;entryY=0;entryDx=0;entryDy=0;" edge="1" parent="1" source="XpFWsXCwZ9IyMUFJu6XQ-2" target="XpFWsXCwZ9IyMUFJu6XQ-1">
          <mxGeometry width="50" height="50" relative="1" as="geometry">
            <mxPoint x="390" y="220" as="sourcePoint" />
            <mxPoint x="440" y="170" as="targetPoint" />
          </mxGeometry>
        </mxCell>
        <mxCell id="XpFWsXCwZ9IyMUFJu6XQ-9" value="" style="endArrow=none;html=1;exitX=1;exitY=0.5;exitDx=0;exitDy=0;entryX=0;entryY=0.5;entryDx=0;entryDy=0;" edge="1" parent="1" source="XpFWsXCwZ9IyMUFJu6XQ-4" target="XpFWsXCwZ9IyMUFJu6XQ-1">
          <mxGeometry width="50" height="50" relative="1" as="geometry">
            <mxPoint x="390" y="220" as="sourcePoint" />
            <mxPoint x="440" y="170" as="targetPoint" />
          </mxGeometry>
        </mxCell>
        <mxCell id="XpFWsXCwZ9IyMUFJu6XQ-10" value="" style="endArrow=none;html=1;exitX=1;exitY=0;exitDx=0;exitDy=0;entryX=0;entryY=1;entryDx=0;entryDy=0;" edge="1" parent="1" source="XpFWsXCwZ9IyMUFJu6XQ-5" target="XpFWsXCwZ9IyMUFJu6XQ-1">
          <mxGeometry width="50" height="50" relative="1" as="geometry">
            <mxPoint x="390" y="220" as="sourcePoint" />
            <mxPoint x="440" y="170" as="targetPoint" />
          </mxGeometry>
        </mxCell>
        <mxCell id="XpFWsXCwZ9IyMUFJu6XQ-11" value="" style="endArrow=none;html=1;exitX=0.5;exitY=0;exitDx=0;exitDy=0;entryX=0.5;entryY=1;entryDx=0;entryDy=0;" edge="1" parent="1" source="XpFWsXCwZ9IyMUFJu6XQ-3" target="XpFWsXCwZ9IyMUFJu6XQ-1">
          <mxGeometry width="50" height="50" relative="1" as="geometry">
            <mxPoint x="390" y="220" as="sourcePoint" />
            <mxPoint x="440" y="170" as="targetPoint" />
          </mxGeometry>
        </mxCell>
        <mxCell id="XpFWsXCwZ9IyMUFJu6XQ-12" value="ANIMALES" style="whiteSpace=wrap;html=1;align=center;fillColor=#dae8fc;strokeColor=#6c8ebf;" vertex="1" parent="1">
          <mxGeometry x="160" y="340" width="100" height="40" as="geometry" />
        </mxCell>
        <mxCell id="XpFWsXCwZ9IyMUFJu6XQ-13" value="" style="endArrow=none;html=1;exitX=0.5;exitY=0;exitDx=0;exitDy=0;entryX=0.5;entryY=1;entryDx=0;entryDy=0;" edge="1" parent="1" source="XpFWsXCwZ9IyMUFJu6XQ-12" target="XpFWsXCwZ9IyMUFJu6XQ-3">
          <mxGeometry width="50" height="50" relative="1" as="geometry">
            <mxPoint x="390" y="320" as="sourcePoint" />
            <mxPoint x="440" y="270" as="targetPoint" />
          </mxGeometry>
        </mxCell>
        <mxCell id="XpFWsXCwZ9IyMUFJu6XQ-14" value="1,N" style="text;html=1;strokeColor=none;fillColor=none;align=center;verticalAlign=middle;whiteSpace=wrap;rounded=0;" vertex="1" parent="1">
          <mxGeometry x="210" y="120" width="40" height="20" as="geometry" />
        </mxCell>
        <mxCell id="XpFWsXCwZ9IyMUFJu6XQ-15" value="N:N" style="text;html=1;strokeColor=none;fillColor=none;align=center;verticalAlign=middle;whiteSpace=wrap;rounded=0;" vertex="1" parent="1">
          <mxGeometry x="270" y="220" width="40" height="20" as="geometry" />
        </mxCell>
        <mxCell id="XpFWsXCwZ9IyMUFJu6XQ-16" value="1,N" style="text;html=1;strokeColor=none;fillColor=none;align=center;verticalAlign=middle;whiteSpace=wrap;rounded=0;" vertex="1" parent="1">
          <mxGeometry x="210" y="320" width="40" height="20" as="geometry" />
        </mxCell>
        <mxCell id="XpFWsXCwZ9IyMUFJu6XQ-17" value="ALIMENTO" style="whiteSpace=wrap;html=1;align=center;fillColor=#dae8fc;strokeColor=#6c8ebf;" vertex="1" parent="1">
          <mxGeometry x="580" y="80" width="100" height="40" as="geometry" />
        </mxCell>
        <mxCell id="XpFWsXCwZ9IyMUFJu6XQ-18" value="CONSTITUIDA" style="shape=rhombus;perimeter=rhombusPerimeter;whiteSpace=wrap;html=1;align=center;fillColor=#d5e8d4;strokeColor=#82b366;" vertex="1" parent="1">
          <mxGeometry x="360" y="70" width="120" height="60" as="geometry" />
        </mxCell>
        <mxCell id="XpFWsXCwZ9IyMUFJu6XQ-19" value="NOMBRE_ALIMENTO" style="ellipse;whiteSpace=wrap;html=1;align=center;fillColor=#ffe6cc;strokeColor=#d79b00;fontStyle=4" vertex="1" parent="1">
          <mxGeometry x="560" y="20" width="140" height="40" as="geometry" />
        </mxCell>
        <mxCell id="XpFWsXCwZ9IyMUFJu6XQ-20" value="TIPO_ALIMENTO" style="ellipse;whiteSpace=wrap;html=1;align=center;fillColor=#ffe6cc;strokeColor=#d79b00;" vertex="1" parent="1">
          <mxGeometry x="705" y="90" width="100" height="40" as="geometry" />
        </mxCell>
        <mxCell id="XpFWsXCwZ9IyMUFJu6XQ-21" value="CANTIDAD_ALIMENTO" style="ellipse;whiteSpace=wrap;html=1;align=center;fillColor=#ffe6cc;strokeColor=#d79b00;" vertex="1" parent="1">
          <mxGeometry x="691.5" y="40" width="127" height="40" as="geometry" />
        </mxCell>
        <mxCell id="XpFWsXCwZ9IyMUFJu6XQ-22" value="COSTE_ALIMENTO" style="ellipse;whiteSpace=wrap;html=1;align=center;fillColor=#ffe6cc;strokeColor=#d79b00;" vertex="1" parent="1">
          <mxGeometry x="700" y="140" width="110" height="40" as="geometry" />
        </mxCell>
        <mxCell id="XpFWsXCwZ9IyMUFJu6XQ-23" value="" style="endArrow=none;html=1;entryX=0.5;entryY=1;entryDx=0;entryDy=0;exitX=0.5;exitY=0;exitDx=0;exitDy=0;" edge="1" parent="1" source="XpFWsXCwZ9IyMUFJu6XQ-17" target="XpFWsXCwZ9IyMUFJu6XQ-19">
          <mxGeometry width="50" height="50" relative="1" as="geometry">
            <mxPoint x="390" y="320" as="sourcePoint" />
            <mxPoint x="440" y="270" as="targetPoint" />
          </mxGeometry>
        </mxCell>
        <mxCell id="XpFWsXCwZ9IyMUFJu6XQ-24" value="" style="endArrow=none;html=1;exitX=1;exitY=0.5;exitDx=0;exitDy=0;entryX=0;entryY=0.5;entryDx=0;entryDy=0;" edge="1" parent="1" source="XpFWsXCwZ9IyMUFJu6XQ-1" target="XpFWsXCwZ9IyMUFJu6XQ-18">
          <mxGeometry width="50" height="50" relative="1" as="geometry">
            <mxPoint x="390" y="320" as="sourcePoint" />
            <mxPoint x="440" y="270" as="targetPoint" />
          </mxGeometry>
        </mxCell>
        <mxCell id="XpFWsXCwZ9IyMUFJu6XQ-25" value="" style="endArrow=none;html=1;entryX=1;entryY=0.5;entryDx=0;entryDy=0;exitX=0;exitY=0.5;exitDx=0;exitDy=0;" edge="1" parent="1" source="XpFWsXCwZ9IyMUFJu6XQ-17" target="XpFWsXCwZ9IyMUFJu6XQ-18">
          <mxGeometry width="50" height="50" relative="1" as="geometry">
            <mxPoint x="390" y="320" as="sourcePoint" />
            <mxPoint x="440" y="270" as="targetPoint" />
          </mxGeometry>
        </mxCell>
        <mxCell id="XpFWsXCwZ9IyMUFJu6XQ-26" value="1,N" style="text;html=1;align=center;verticalAlign=middle;resizable=0;points=[];autosize=1;" vertex="1" parent="1">
          <mxGeometry x="545" y="80" width="30" height="20" as="geometry" />
        </mxCell>
        <mxCell id="XpFWsXCwZ9IyMUFJu6XQ-28" value="1,N" style="text;html=1;align=center;verticalAlign=middle;resizable=0;points=[];autosize=1;" vertex="1" parent="1">
          <mxGeometry x="405" y="50" width="30" height="20" as="geometry" />
        </mxCell>
        <mxCell id="XpFWsXCwZ9IyMUFJu6XQ-29" value="1,1" style="text;html=1;align=center;verticalAlign=middle;resizable=0;points=[];autosize=1;" vertex="1" parent="1">
          <mxGeometry x="260" y="80" width="30" height="20" as="geometry" />
        </mxCell>
        <mxCell id="XpFWsXCwZ9IyMUFJu6XQ-30" value="" style="endArrow=none;html=1;entryX=1;entryY=0.5;entryDx=0;entryDy=0;exitX=0;exitY=0.5;exitDx=0;exitDy=0;" edge="1" parent="1" source="XpFWsXCwZ9IyMUFJu6XQ-20" target="XpFWsXCwZ9IyMUFJu6XQ-17">
          <mxGeometry width="50" height="50" relative="1" as="geometry">
            <mxPoint x="390" y="320" as="sourcePoint" />
            <mxPoint x="440" y="270" as="targetPoint" />
          </mxGeometry>
        </mxCell>
        <mxCell id="XpFWsXCwZ9IyMUFJu6XQ-31" value="" style="endArrow=none;html=1;entryX=0;entryY=1;entryDx=0;entryDy=0;exitX=1;exitY=0;exitDx=0;exitDy=0;" edge="1" parent="1" source="XpFWsXCwZ9IyMUFJu6XQ-17" target="XpFWsXCwZ9IyMUFJu6XQ-21">
          <mxGeometry width="50" height="50" relative="1" as="geometry">
            <mxPoint x="390" y="320" as="sourcePoint" />
            <mxPoint x="440" y="270" as="targetPoint" />
          </mxGeometry>
        </mxCell>
        <mxCell id="XpFWsXCwZ9IyMUFJu6XQ-32" value="" style="endArrow=none;html=1;entryX=0;entryY=0.5;entryDx=0;entryDy=0;exitX=1;exitY=1;exitDx=0;exitDy=0;" edge="1" parent="1" source="XpFWsXCwZ9IyMUFJu6XQ-17" target="XpFWsXCwZ9IyMUFJu6XQ-22">
          <mxGeometry width="50" height="50" relative="1" as="geometry">
            <mxPoint x="390" y="320" as="sourcePoint" />
            <mxPoint x="440" y="270" as="targetPoint" />
          </mxGeometry>
        </mxCell>
        <mxCell id="XpFWsXCwZ9IyMUFJu6XQ-33" value="CONTIENE" style="shape=rhombus;perimeter=rhombusPerimeter;whiteSpace=wrap;html=1;align=center;fillColor=#d5e8d4;strokeColor=#82b366;" vertex="1" parent="1">
          <mxGeometry x="570" y="200" width="120" height="60" as="geometry" />
        </mxCell>
        <mxCell id="XpFWsXCwZ9IyMUFJu6XQ-34" value="NUTRINETE" style="whiteSpace=wrap;html=1;align=center;fillColor=#dae8fc;strokeColor=#6c8ebf;" vertex="1" parent="1">
          <mxGeometry x="580" y="340" width="100" height="40" as="geometry" />
        </mxCell>
        <mxCell id="XpFWsXCwZ9IyMUFJu6XQ-35" value="" style="endArrow=none;html=1;exitX=0.5;exitY=0;exitDx=0;exitDy=0;entryX=0.5;entryY=1;entryDx=0;entryDy=0;" edge="1" parent="1" source="XpFWsXCwZ9IyMUFJu6XQ-34" target="XpFWsXCwZ9IyMUFJu6XQ-33">
          <mxGeometry width="50" height="50" relative="1" as="geometry">
            <mxPoint x="810" y="320" as="sourcePoint" />
            <mxPoint x="860" y="270" as="targetPoint" />
          </mxGeometry>
        </mxCell>
        <mxCell id="XpFWsXCwZ9IyMUFJu6XQ-36" value="" style="endArrow=none;html=1;entryX=0.5;entryY=1;entryDx=0;entryDy=0;exitX=0.5;exitY=0;exitDx=0;exitDy=0;" edge="1" parent="1" source="XpFWsXCwZ9IyMUFJu6XQ-33" target="XpFWsXCwZ9IyMUFJu6XQ-17">
          <mxGeometry width="50" height="50" relative="1" as="geometry">
            <mxPoint x="390" y="320" as="sourcePoint" />
            <mxPoint x="440" y="270" as="targetPoint" />
          </mxGeometry>
        </mxCell>
        <mxCell id="XpFWsXCwZ9IyMUFJu6XQ-37" value="N:M" style="text;html=1;align=center;verticalAlign=middle;resizable=0;points=[];autosize=1;" vertex="1" parent="1">
          <mxGeometry x="690" y="220" width="40" height="20" as="geometry" />
        </mxCell>
        <mxCell id="XpFWsXCwZ9IyMUFJu6XQ-38" value="1,M" style="text;html=1;align=center;verticalAlign=middle;resizable=0;points=[];autosize=1;" vertex="1" parent="1">
          <mxGeometry x="630" y="320" width="40" height="20" as="geometry" />
        </mxCell>
        <mxCell id="XpFWsXCwZ9IyMUFJu6XQ-39" value="1,N" style="text;html=1;align=center;verticalAlign=middle;resizable=0;points=[];autosize=1;" vertex="1" parent="1">
          <mxGeometry x="635" y="120" width="30" height="20" as="geometry" />
        </mxCell>
        <mxCell id="XpFWsXCwZ9IyMUFJu6XQ-40" value="NOMBRE_ALIMENTO" style="ellipse;whiteSpace=wrap;html=1;align=center;fillColor=#ffe6cc;strokeColor=#d79b00;fontStyle=4" vertex="1" parent="1">
          <mxGeometry x="560" y="410" width="140" height="40" as="geometry" />
        </mxCell>
        <mxCell id="XpFWsXCwZ9IyMUFJu6XQ-41" value="TIPO_ALIMENTO" style="ellipse;whiteSpace=wrap;html=1;align=center;fillColor=#ffe6cc;strokeColor=#d79b00;" vertex="1" parent="1">
          <mxGeometry x="703.5" y="330" width="100" height="40" as="geometry" />
        </mxCell>
        <mxCell id="XpFWsXCwZ9IyMUFJu6XQ-42" value="CANTIDAD_ALIMENTO" style="ellipse;whiteSpace=wrap;html=1;align=center;fillColor=#ffe6cc;strokeColor=#d79b00;" vertex="1" parent="1">
          <mxGeometry x="690" y="280" width="127" height="40" as="geometry" />
        </mxCell>
        <mxCell id="XpFWsXCwZ9IyMUFJu6XQ-43" value="COSTE_ALIMENTO" style="ellipse;whiteSpace=wrap;html=1;align=center;fillColor=#ffe6cc;strokeColor=#d79b00;" vertex="1" parent="1">
          <mxGeometry x="698.5" y="380" width="110" height="40" as="geometry" />
        </mxCell>
        <mxCell id="XpFWsXCwZ9IyMUFJu6XQ-44" value="" style="endArrow=none;html=1;entryX=0.5;entryY=0;entryDx=0;entryDy=0;exitX=0.5;exitY=1;exitDx=0;exitDy=0;" edge="1" parent="1" source="XpFWsXCwZ9IyMUFJu6XQ-34" target="XpFWsXCwZ9IyMUFJu6XQ-40">
          <mxGeometry width="50" height="50" relative="1" as="geometry">
            <mxPoint x="390" y="320" as="sourcePoint" />
            <mxPoint x="440" y="270" as="targetPoint" />
          </mxGeometry>
        </mxCell>
        <mxCell id="XpFWsXCwZ9IyMUFJu6XQ-45" value="" style="endArrow=none;html=1;entryX=1;entryY=0;entryDx=0;entryDy=0;exitX=0;exitY=1;exitDx=0;exitDy=0;" edge="1" parent="1" source="XpFWsXCwZ9IyMUFJu6XQ-42" target="XpFWsXCwZ9IyMUFJu6XQ-34">
          <mxGeometry width="50" height="50" relative="1" as="geometry">
            <mxPoint x="390" y="320" as="sourcePoint" />
            <mxPoint x="440" y="270" as="targetPoint" />
          </mxGeometry>
        </mxCell>
        <mxCell id="XpFWsXCwZ9IyMUFJu6XQ-46" value="" style="endArrow=none;html=1;exitX=1;exitY=0.5;exitDx=0;exitDy=0;entryX=0;entryY=0.5;entryDx=0;entryDy=0;" edge="1" parent="1" source="XpFWsXCwZ9IyMUFJu6XQ-34" target="XpFWsXCwZ9IyMUFJu6XQ-41">
          <mxGeometry width="50" height="50" relative="1" as="geometry">
            <mxPoint x="390" y="320" as="sourcePoint" />
            <mxPoint x="440" y="270" as="targetPoint" />
          </mxGeometry>
        </mxCell>
        <mxCell id="XpFWsXCwZ9IyMUFJu6XQ-47" value="" style="endArrow=none;html=1;entryX=1;entryY=1;entryDx=0;entryDy=0;exitX=0;exitY=0.5;exitDx=0;exitDy=0;" edge="1" parent="1" source="XpFWsXCwZ9IyMUFJu6XQ-43" target="XpFWsXCwZ9IyMUFJu6XQ-34">
          <mxGeometry width="50" height="50" relative="1" as="geometry">
            <mxPoint x="390" y="320" as="sourcePoint" />
            <mxPoint x="440" y="270" as="targetPoint" />
          </mxGeometry>
        </mxCell>
        <mxCell id="XpFWsXCwZ9IyMUFJu6XQ-48" value="COD_ANIMAL" style="ellipse;whiteSpace=wrap;html=1;align=center;fillColor=#ffe6cc;strokeColor=#d79b00;fontStyle=4" vertex="1" parent="1">
          <mxGeometry x="20" y="340" width="100" height="40" as="geometry" />
        </mxCell>
        <mxCell id="XpFWsXCwZ9IyMUFJu6XQ-49" value="TIPO_ANIMAL" style="ellipse;whiteSpace=wrap;html=1;align=center;fillColor=#ffe6cc;strokeColor=#d79b00;" vertex="1" parent="1">
          <mxGeometry x="45" y="390" width="100" height="40" as="geometry" />
        </mxCell>
        <mxCell id="XpFWsXCwZ9IyMUFJu6XQ-50" value="PESO" style="ellipse;whiteSpace=wrap;html=1;align=center;fillColor=#ffe6cc;strokeColor=#d79b00;" vertex="1" parent="1">
          <mxGeometry x="90" y="430" width="100" height="40" as="geometry" />
        </mxCell>
        <mxCell id="XpFWsXCwZ9IyMUFJu6XQ-51" value="OTROS_DATOS" style="ellipse;whiteSpace=wrap;html=1;align=center;fillColor=#ffe6cc;strokeColor=#d79b00;" vertex="1" parent="1">
          <mxGeometry x="290" y="340" width="100" height="40" as="geometry" />
        </mxCell>
        <mxCell id="XpFWsXCwZ9IyMUFJu6XQ-52" value="AÑO_NACIMIENTO" style="ellipse;whiteSpace=wrap;html=1;align=center;fillColor=#ffe6cc;strokeColor=#d79b00;" vertex="1" parent="1">
          <mxGeometry x="210" y="430" width="110" height="40" as="geometry" />
        </mxCell>
        <mxCell id="XpFWsXCwZ9IyMUFJu6XQ-53" value="UTILIDAD_ANIMAL" style="ellipse;whiteSpace=wrap;html=1;align=center;fillColor=#ffe6cc;strokeColor=#d79b00;" vertex="1" parent="1">
          <mxGeometry x="280" y="390" width="110" height="40" as="geometry" />
        </mxCell>
        <mxCell id="XpFWsXCwZ9IyMUFJu6XQ-54" value="" style="endArrow=none;html=1;exitX=0;exitY=0.5;exitDx=0;exitDy=0;entryX=1;entryY=0.5;entryDx=0;entryDy=0;" edge="1" parent="1" source="XpFWsXCwZ9IyMUFJu6XQ-51" target="XpFWsXCwZ9IyMUFJu6XQ-12">
          <mxGeometry width="50" height="50" relative="1" as="geometry">
            <mxPoint x="390" y="320" as="sourcePoint" />
            <mxPoint x="440" y="270" as="targetPoint" />
          </mxGeometry>
        </mxCell>
        <mxCell id="XpFWsXCwZ9IyMUFJu6XQ-55" value="" style="endArrow=none;html=1;exitX=1;exitY=0.5;exitDx=0;exitDy=0;entryX=0;entryY=0.5;entryDx=0;entryDy=0;" edge="1" parent="1" source="XpFWsXCwZ9IyMUFJu6XQ-48" target="XpFWsXCwZ9IyMUFJu6XQ-12">
          <mxGeometry width="50" height="50" relative="1" as="geometry">
            <mxPoint x="390" y="320" as="sourcePoint" />
            <mxPoint x="440" y="270" as="targetPoint" />
          </mxGeometry>
        </mxCell>
        <mxCell id="XpFWsXCwZ9IyMUFJu6XQ-56" value="" style="endArrow=none;html=1;exitX=1;exitY=0;exitDx=0;exitDy=0;entryX=0;entryY=1;entryDx=0;entryDy=0;" edge="1" parent="1" source="XpFWsXCwZ9IyMUFJu6XQ-49" target="XpFWsXCwZ9IyMUFJu6XQ-12">
          <mxGeometry width="50" height="50" relative="1" as="geometry">
            <mxPoint x="390" y="320" as="sourcePoint" />
            <mxPoint x="440" y="270" as="targetPoint" />
          </mxGeometry>
        </mxCell>
        <mxCell id="XpFWsXCwZ9IyMUFJu6XQ-57" value="" style="endArrow=none;html=1;exitX=0;exitY=0.5;exitDx=0;exitDy=0;entryX=1;entryY=1;entryDx=0;entryDy=0;" edge="1" parent="1" source="XpFWsXCwZ9IyMUFJu6XQ-53" target="XpFWsXCwZ9IyMUFJu6XQ-12">
          <mxGeometry width="50" height="50" relative="1" as="geometry">
            <mxPoint x="390" y="320" as="sourcePoint" />
            <mxPoint x="440" y="270" as="targetPoint" />
          </mxGeometry>
        </mxCell>
        <mxCell id="XpFWsXCwZ9IyMUFJu6XQ-58" value="" style="endArrow=none;html=1;exitX=0;exitY=0;exitDx=0;exitDy=0;entryX=0.5;entryY=1;entryDx=0;entryDy=0;" edge="1" parent="1" source="XpFWsXCwZ9IyMUFJu6XQ-52" target="XpFWsXCwZ9IyMUFJu6XQ-12">
          <mxGeometry width="50" height="50" relative="1" as="geometry">
            <mxPoint x="400" y="330" as="sourcePoint" />
            <mxPoint x="450" y="280" as="targetPoint" />
          </mxGeometry>
        </mxCell>
        <mxCell id="XpFWsXCwZ9IyMUFJu6XQ-59" value="" style="endArrow=none;html=1;exitX=1;exitY=0;exitDx=0;exitDy=0;entryX=0.5;entryY=1;entryDx=0;entryDy=0;" edge="1" parent="1" source="XpFWsXCwZ9IyMUFJu6XQ-50" target="XpFWsXCwZ9IyMUFJu6XQ-12">
          <mxGeometry width="50" height="50" relative="1" as="geometry">
            <mxPoint x="410" y="340" as="sourcePoint" />
            <mxPoint x="460" y="290" as="targetPoint" />
          </mxGeometry>
        </mxCell>
      </root>
    </mxGraphModel>
  </diagram>
</mxfile>
